<svg width="26" height="20" viewBox="0 0 26 20" fill="none" xmlns="http://www.w3.org/2000/svg">
<path id="Vector" d="M25.9564 7.56543C25.8744 7.37414 25.7253 7.20612 25.5271 7.08175C25.3289 6.95738 25.0902 6.882 24.8399 6.86475L17.453 5.99673L14.1425 0.589946C14.0362 0.413132 13.8702 0.264014 13.6635 0.159676C13.4569 0.0553385 13.2179 0 12.9741 0C12.7302 0 12.4912 0.0553385 12.2846 0.159676C12.0779 0.264014 11.912 0.413132 11.8057 0.589946L8.49516 5.98627L1.10821 6.86475C0.867936 6.89226 0.642046 6.97347 0.456173 7.09917C0.2703 7.22487 0.131887 7.39002 0.0566416 7.57589C-0.0122362 7.75752 -0.0184171 7.95083 0.038762 8.13507C0.0959412 8.31932 0.214322 8.48754 0.3812 8.62169L5.7429 12.8049L4.44467 18.745C4.39832 18.9411 4.42259 19.1438 4.51461 19.3291C4.60662 19.5144 4.76255 19.6746 4.96396 19.7908C5.16028 19.9039 5.39183 19.9706 5.63261 19.9836C5.8734 19.9965 6.1139 19.9551 6.32711 19.864L12.9741 17.0718L19.595 19.8745C19.7773 19.9573 19.983 20.0005 20.1922 20C20.4672 20.0008 20.7354 19.9312 20.9582 19.8013C21.1596 19.6851 21.3155 19.5248 21.4075 19.3395C21.4996 19.1542 21.5238 18.9516 21.4775 18.7555L20.1793 12.8153L25.541 8.63215C25.7284 8.50422 25.8669 8.33609 25.9405 8.14726C26.014 7.95844 26.0195 7.75668 25.9564 7.56543ZM17.9723 11.7486C17.82 11.8673 17.7061 12.0141 17.6405 12.1763C17.5749 12.3386 17.5595 12.5113 17.5958 12.6794L18.5305 17.0613L13.6491 14.9697C13.4613 14.8891 13.2518 14.847 13.039 14.847C12.8262 14.847 12.6166 14.8891 12.4288 14.9697L7.54745 17.0613L8.48217 12.6794C8.51844 12.5113 8.50309 12.3386 8.43747 12.1763C8.37185 12.0141 8.25794 11.8673 8.10569 11.7486L4.21099 8.61123L9.67655 7.97329C9.88686 7.94973 10.0868 7.88497 10.2588 7.78469C10.4308 7.68441 10.5697 7.55167 10.6632 7.3981L12.9741 3.41361L15.4147 7.40856C15.5083 7.56213 15.6471 7.69486 15.8191 7.79514C15.9912 7.89542 16.1911 7.96019 16.4014 7.98375L21.867 8.62169L17.9723 11.7486Z" fill="black"/>
</svg>
